<svg width="60" height="29" viewBox="0 0 60 29" fill="none" xmlns="http://www.w3.org/2000/svg">
<rect x="0.5" y="0.5" width="59" height="28" rx="14" fill="#121212"/>
<path d="M14.1737 18H13.0937V9.432H17.8817V10.38H14.1737V13.416H17.6537V14.364H14.1737V18ZM24.7643 14.772C24.7643 15.836 24.4923 16.66 23.9483 17.244C23.4123 17.828 22.6843 18.12 21.7643 18.12C21.1963 18.12 20.6883 17.992 20.2403 17.736C19.8003 17.472 19.4523 17.092 19.1963 16.596C18.9403 16.092 18.8123 15.484 18.8123 14.772C18.8123 13.708 19.0803 12.888 19.6163 12.312C20.1523 11.736 20.8803 11.448 21.8003 11.448C22.3843 11.448 22.8963 11.58 23.3363 11.844C23.7843 12.1 24.1323 12.476 24.3803 12.972C24.6363 13.46 24.7643 14.06 24.7643 14.772ZM19.9043 14.772C19.9043 15.532 20.0523 16.136 20.3483 16.584C20.6523 17.024 21.1323 17.244 21.7883 17.244C22.4363 17.244 22.9123 17.024 23.2163 16.584C23.5203 16.136 23.6723 15.532 23.6723 14.772C23.6723 14.012 23.5203 13.416 23.2163 12.984C22.9123 12.552 22.4323 12.336 21.7763 12.336C21.1203 12.336 20.6443 12.552 20.3483 12.984C20.0523 13.416 19.9043 14.012 19.9043 14.772ZM27.494 18H26.438V8.88H27.494V18ZM30.5877 18H29.5317V8.88H30.5877V18ZM38.2175 14.772C38.2175 15.836 37.9455 16.66 37.4015 17.244C36.8655 17.828 36.1375 18.12 35.2175 18.12C34.6495 18.12 34.1415 17.992 33.6935 17.736C33.2535 17.472 32.9055 17.092 32.6495 16.596C32.3935 16.092 32.2655 15.484 32.2655 14.772C32.2655 13.708 32.5335 12.888 33.0695 12.312C33.6055 11.736 34.3335 11.448 35.2535 11.448C35.8375 11.448 36.3495 11.58 36.7895 11.844C37.2375 12.1 37.5855 12.476 37.8335 12.972C38.0895 13.46 38.2175 14.06 38.2175 14.772ZM33.3575 14.772C33.3575 15.532 33.5055 16.136 33.8015 16.584C34.1055 17.024 34.5855 17.244 35.2415 17.244C35.8895 17.244 36.3655 17.024 36.6695 16.584C36.9735 16.136 37.1255 15.532 37.1255 14.772C37.1255 14.012 36.9735 13.416 36.6695 12.984C36.3655 12.552 35.8855 12.336 35.2295 12.336C34.5735 12.336 34.0975 12.552 33.8015 12.984C33.5055 13.416 33.3575 14.012 33.3575 14.772ZM43.8087 14.364C43.7047 14.036 43.6127 13.716 43.5327 13.404C43.4607 13.084 43.4047 12.836 43.3647 12.66H43.3167C43.2847 12.836 43.2327 13.084 43.1607 13.404C43.0887 13.716 42.9967 14.04 42.8847 14.376L41.7327 17.988H40.5327L38.7687 11.556H39.8607L40.7487 14.988C40.8367 15.332 40.9207 15.68 41.0007 16.032C41.0807 16.384 41.1367 16.676 41.1687 16.908H41.2167C41.2487 16.772 41.2847 16.604 41.3247 16.404C41.3727 16.204 41.4247 15.996 41.4807 15.78C41.5367 15.556 41.5927 15.356 41.6487 15.18L42.7887 11.556H43.9407L45.0447 15.18C45.1327 15.452 45.2167 15.748 45.2967 16.068C45.3847 16.388 45.4447 16.664 45.4767 16.896H45.5247C45.5487 16.696 45.6007 16.42 45.6807 16.068C45.7687 15.716 45.8607 15.356 45.9567 14.988L46.8567 11.556H47.9367L46.1487 17.988H44.9127L43.8087 14.364Z" fill="white"/>
<rect x="0.5" y="0.5" width="59" height="28" rx="14" stroke="white"/>
</svg>
